<svg width="470" height="19" viewBox="0 0 470 19" fill="none" xmlns="http://www.w3.org/2000/svg">
<g clip-path="url(#clip0_1_214)">
<rect width="457" height="18" transform="translate(0 0.421875)" fill="white"/>
<path d="M4.83984 5.35059L1.54492 14.4219H0.198242L3.99219 4.46875H4.86035L4.83984 5.35059ZM7.60156 14.4219L4.2998 5.35059L4.2793 4.46875H5.14746L8.95508 14.4219H7.60156ZM7.43066 10.7373V11.8174H1.83887V10.7373H7.43066ZM14.7588 12.9863V3.92188H16.0303V14.4219H14.8682L14.7588 12.9863ZM9.78223 10.8057V10.6621C9.78223 10.097 9.85059 9.58431 9.9873 9.12402C10.1286 8.65918 10.3268 8.26042 10.582 7.92773C10.8418 7.59505 11.1494 7.33984 11.5049 7.16211C11.8649 6.97982 12.266 6.88867 12.708 6.88867C13.1729 6.88867 13.5785 6.9707 13.9248 7.13477C14.2757 7.29427 14.5719 7.52897 14.8135 7.83887C15.0596 8.14421 15.2533 8.51335 15.3945 8.94629C15.5358 9.37923 15.6338 9.86914 15.6885 10.416V11.0449C15.6383 11.5872 15.5404 12.0749 15.3945 12.5078C15.2533 12.9408 15.0596 13.3099 14.8135 13.6152C14.5719 13.9206 14.2757 14.1553 13.9248 14.3193C13.5739 14.4788 13.1637 14.5586 12.6943 14.5586C12.2614 14.5586 11.8649 14.4652 11.5049 14.2783C11.1494 14.0915 10.8418 13.8294 10.582 13.4922C10.3268 13.1549 10.1286 12.7585 9.9873 12.3027C9.85059 11.8424 9.78223 11.3434 9.78223 10.8057ZM11.0537 10.6621V10.8057C11.0537 11.1748 11.0902 11.5212 11.1631 11.8447C11.2406 12.1683 11.359 12.4531 11.5186 12.6992C11.6781 12.9453 11.8809 13.139 12.127 13.2803C12.373 13.417 12.667 13.4854 13.0088 13.4854C13.4281 13.4854 13.7721 13.3965 14.041 13.2188C14.3145 13.041 14.5332 12.8063 14.6973 12.5146C14.8613 12.223 14.9889 11.9062 15.0801 11.5645V9.91699C15.0254 9.66634 14.9456 9.4248 14.8408 9.19238C14.7406 8.9554 14.6084 8.74577 14.4443 8.56348C14.2848 8.37663 14.0866 8.22852 13.8496 8.11914C13.6172 8.00977 13.3415 7.95508 13.0225 7.95508C12.6761 7.95508 12.3776 8.02799 12.127 8.17383C11.8809 8.3151 11.6781 8.51107 11.5186 8.76172C11.359 9.00781 11.2406 9.29492 11.1631 9.62305C11.0902 9.94661 11.0537 10.293 11.0537 10.6621ZM22.6611 12.9863V3.92188H23.9326V14.4219H22.7705L22.6611 12.9863ZM17.6846 10.8057V10.6621C17.6846 10.097 17.7529 9.58431 17.8896 9.12402C18.0309 8.65918 18.2292 8.26042 18.4844 7.92773C18.7441 7.59505 19.0518 7.33984 19.4072 7.16211C19.7673 6.97982 20.1683 6.88867 20.6104 6.88867C21.0752 6.88867 21.4808 6.9707 21.8271 7.13477C22.1781 7.29427 22.4743 7.52897 22.7158 7.83887C22.9619 8.14421 23.1556 8.51335 23.2969 8.94629C23.4382 9.37923 23.5361 9.86914 23.5908 10.416V11.0449C23.5407 11.5872 23.4427 12.0749 23.2969 12.5078C23.1556 12.9408 22.9619 13.3099 22.7158 13.6152C22.4743 13.9206 22.1781 14.1553 21.8271 14.3193C21.4762 14.4788 21.0661 14.5586 20.5967 14.5586C20.1637 14.5586 19.7673 14.4652 19.4072 14.2783C19.0518 14.0915 18.7441 13.8294 18.4844 13.4922C18.2292 13.1549 18.0309 12.7585 17.8896 12.3027C17.7529 11.8424 17.6846 11.3434 17.6846 10.8057ZM18.9561 10.6621V10.8057C18.9561 11.1748 18.9925 11.5212 19.0654 11.8447C19.1429 12.1683 19.2614 12.4531 19.4209 12.6992C19.5804 12.9453 19.7832 13.139 20.0293 13.2803C20.2754 13.417 20.5693 13.4854 20.9111 13.4854C21.3304 13.4854 21.6745 13.3965 21.9434 13.2188C22.2168 13.041 22.4355 12.8063 22.5996 12.5146C22.7637 12.223 22.8913 11.9062 22.9824 11.5645V9.91699C22.9277 9.66634 22.848 9.4248 22.7432 9.19238C22.6429 8.9554 22.5107 8.74577 22.3467 8.56348C22.1872 8.37663 21.9889 8.22852 21.752 8.11914C21.5195 8.00977 21.2438 7.95508 20.9248 7.95508C20.5785 7.95508 20.2799 8.02799 20.0293 8.17383C19.7832 8.3151 19.5804 8.51107 19.4209 8.76172C19.2614 9.00781 19.1429 9.29492 19.0654 9.62305C18.9925 9.94661 18.9561 10.293 18.9561 10.6621ZM33.7354 13.1572V9.34961C33.7354 9.05794 33.6761 8.80501 33.5576 8.59082C33.4437 8.37207 33.2705 8.20345 33.0381 8.08496C32.8057 7.96647 32.5186 7.90723 32.1768 7.90723C31.8577 7.90723 31.5775 7.96191 31.3359 8.07129C31.099 8.18066 30.9121 8.32422 30.7754 8.50195C30.6432 8.67969 30.5771 8.87109 30.5771 9.07617H29.3125C29.3125 8.81185 29.3809 8.5498 29.5176 8.29004C29.6543 8.03027 29.8503 7.79557 30.1055 7.58594C30.3652 7.37174 30.6751 7.20312 31.0352 7.08008C31.3997 6.95247 31.8053 6.88867 32.252 6.88867C32.7897 6.88867 33.2637 6.97982 33.6738 7.16211C34.0885 7.3444 34.4121 7.62012 34.6445 7.98926C34.8815 8.35384 35 8.81185 35 9.36328V12.8086C35 13.0547 35.0205 13.3167 35.0615 13.5947C35.1071 13.8727 35.1732 14.112 35.2598 14.3125V14.4219H33.9404C33.8766 14.276 33.8265 14.0824 33.79 13.8408C33.7536 13.5947 33.7354 13.3669 33.7354 13.1572ZM33.9541 9.9375L33.9678 10.8262H32.6895C32.3294 10.8262 32.0081 10.8558 31.7256 10.915C31.443 10.9697 31.2061 11.054 31.0146 11.168C30.8232 11.2819 30.6774 11.4255 30.5771 11.5986C30.4769 11.7673 30.4268 11.9655 30.4268 12.1934C30.4268 12.4258 30.4792 12.6377 30.584 12.8291C30.6888 13.0205 30.846 13.1732 31.0557 13.2871C31.2699 13.3965 31.5319 13.4512 31.8418 13.4512C32.2292 13.4512 32.571 13.3691 32.8672 13.2051C33.1634 13.041 33.3981 12.8405 33.5713 12.6035C33.749 12.3665 33.8447 12.1364 33.8584 11.9131L34.3984 12.5215C34.3665 12.7129 34.2799 12.9248 34.1387 13.1572C33.9974 13.3896 33.8083 13.613 33.5713 13.8271C33.3389 14.0368 33.0609 14.2122 32.7373 14.3535C32.4183 14.4902 32.0583 14.5586 31.6572 14.5586C31.1559 14.5586 30.7161 14.4606 30.3379 14.2646C29.9642 14.0687 29.6725 13.8066 29.4629 13.4785C29.2578 13.1458 29.1553 12.7744 29.1553 12.3643C29.1553 11.9678 29.2327 11.6191 29.3877 11.3184C29.5426 11.013 29.766 10.7601 30.0576 10.5596C30.3493 10.3545 30.7002 10.1995 31.1104 10.0947C31.5205 9.98991 31.9785 9.9375 32.4844 9.9375H33.9541ZM43.4219 13.5195C43.7227 13.5195 44.0007 13.458 44.2559 13.335C44.5111 13.2119 44.7207 13.0433 44.8848 12.8291C45.0488 12.6104 45.1423 12.362 45.165 12.084H46.3682C46.3454 12.5215 46.1973 12.9294 45.9238 13.3076C45.6549 13.6813 45.3018 13.9844 44.8643 14.2168C44.4268 14.4447 43.946 14.5586 43.4219 14.5586C42.8659 14.5586 42.3805 14.4606 41.9658 14.2646C41.5557 14.0687 41.2139 13.7998 40.9404 13.458C40.6715 13.1162 40.4688 12.7243 40.332 12.2822C40.1999 11.8356 40.1338 11.3639 40.1338 10.8672V10.5801C40.1338 10.0833 40.1999 9.61393 40.332 9.17188C40.4688 8.72526 40.6715 8.33105 40.9404 7.98926C41.2139 7.64746 41.5557 7.37858 41.9658 7.18262C42.3805 6.98665 42.8659 6.88867 43.4219 6.88867C44.0007 6.88867 44.5065 7.00716 44.9395 7.24414C45.3724 7.47656 45.7119 7.79557 45.958 8.20117C46.2087 8.60221 46.3454 9.05794 46.3682 9.56836H45.165C45.1423 9.26302 45.0557 8.9873 44.9053 8.74121C44.7594 8.49512 44.5589 8.29915 44.3037 8.15332C44.0531 8.00293 43.7591 7.92773 43.4219 7.92773C43.0345 7.92773 42.7087 8.00521 42.4443 8.16016C42.1846 8.31055 41.9772 8.51562 41.8223 8.77539C41.6719 9.0306 41.5625 9.31543 41.4941 9.62988C41.4303 9.93978 41.3984 10.2565 41.3984 10.5801V10.8672C41.3984 11.1908 41.4303 11.5098 41.4941 11.8242C41.5579 12.1387 41.665 12.4235 41.8154 12.6787C41.9704 12.9339 42.1777 13.139 42.4375 13.2939C42.7018 13.4443 43.0299 13.5195 43.4219 13.5195ZM47.4551 10.8057V10.6484C47.4551 10.1152 47.5326 9.62077 47.6875 9.16504C47.8424 8.70475 48.0658 8.30599 48.3574 7.96875C48.6491 7.62695 49.0023 7.36263 49.417 7.17578C49.8317 6.98438 50.2965 6.88867 50.8115 6.88867C51.3311 6.88867 51.7982 6.98438 52.2129 7.17578C52.6322 7.36263 52.9876 7.62695 53.2793 7.96875C53.5755 8.30599 53.8011 8.70475 53.9561 9.16504C54.111 9.62077 54.1885 10.1152 54.1885 10.6484V10.8057C54.1885 11.3389 54.111 11.8333 53.9561 12.2891C53.8011 12.7448 53.5755 13.1436 53.2793 13.4854C52.9876 13.8226 52.6344 14.0869 52.2197 14.2783C51.8096 14.4652 51.3447 14.5586 50.8252 14.5586C50.3057 14.5586 49.8385 14.4652 49.4238 14.2783C49.0091 14.0869 48.6536 13.8226 48.3574 13.4854C48.0658 13.1436 47.8424 12.7448 47.6875 12.2891C47.5326 11.8333 47.4551 11.3389 47.4551 10.8057ZM48.7197 10.6484V10.8057C48.7197 11.1748 48.763 11.5234 48.8496 11.8516C48.9362 12.1751 49.0661 12.4622 49.2393 12.7129C49.417 12.9635 49.638 13.1618 49.9023 13.3076C50.1667 13.4489 50.4743 13.5195 50.8252 13.5195C51.1715 13.5195 51.4746 13.4489 51.7344 13.3076C51.9987 13.1618 52.2174 12.9635 52.3906 12.7129C52.5638 12.4622 52.6937 12.1751 52.7803 11.8516C52.8714 11.5234 52.917 11.1748 52.917 10.8057V10.6484C52.917 10.2839 52.8714 9.93978 52.7803 9.61621C52.6937 9.28809 52.5615 8.9987 52.3838 8.74805C52.2106 8.49284 51.9919 8.29232 51.7275 8.14648C51.4678 8.00065 51.1624 7.92773 50.8115 7.92773C50.4652 7.92773 50.1598 8.00065 49.8955 8.14648C49.6357 8.29232 49.417 8.49284 49.2393 8.74805C49.0661 8.9987 48.9362 9.28809 48.8496 9.61621C48.763 9.93978 48.7197 10.2839 48.7197 10.6484ZM57.0322 8.49512V14.4219H55.7607V7.02539H56.9639L57.0322 8.49512ZM56.7725 10.4434L56.1846 10.4229C56.1891 9.91699 56.2552 9.44987 56.3828 9.02148C56.5104 8.58854 56.6995 8.21257 56.9502 7.89355C57.2008 7.57454 57.513 7.32845 57.8867 7.15527C58.2604 6.97754 58.6934 6.88867 59.1855 6.88867C59.5319 6.88867 59.8509 6.9388 60.1426 7.03906C60.4342 7.13477 60.6872 7.28743 60.9014 7.49707C61.1156 7.70671 61.2819 7.97559 61.4004 8.30371C61.5189 8.63184 61.5781 9.02832 61.5781 9.49316V14.4219H60.3135V9.55469C60.3135 9.16732 60.2474 8.85742 60.1152 8.625C59.9876 8.39258 59.8053 8.22396 59.5684 8.11914C59.3314 8.00977 59.0534 7.95508 58.7344 7.95508C58.3607 7.95508 58.0485 8.02116 57.7979 8.15332C57.5472 8.28548 57.3467 8.46777 57.1963 8.7002C57.0459 8.93262 56.9365 9.19922 56.8682 9.5C56.8044 9.79622 56.7725 10.1107 56.7725 10.4434ZM61.5645 9.74609L60.7168 10.0059C60.7214 9.60026 60.7874 9.21061 60.915 8.83691C61.0472 8.46322 61.2363 8.13053 61.4824 7.83887C61.7331 7.5472 62.0407 7.31706 62.4053 7.14844C62.7699 6.97526 63.1868 6.88867 63.6562 6.88867C64.0527 6.88867 64.4036 6.94108 64.709 7.0459C65.0189 7.15072 65.2786 7.3125 65.4883 7.53125C65.7025 7.74544 65.8643 8.02116 65.9736 8.3584C66.083 8.69564 66.1377 9.09668 66.1377 9.56152V14.4219H64.8662V9.54785C64.8662 9.13314 64.8001 8.81185 64.668 8.58398C64.5404 8.35156 64.3581 8.18978 64.1211 8.09863C63.8887 8.00293 63.6107 7.95508 63.2871 7.95508C63.0091 7.95508 62.763 8.00293 62.5488 8.09863C62.3346 8.19434 62.1546 8.3265 62.0088 8.49512C61.863 8.65918 61.7513 8.84831 61.6738 9.0625C61.6009 9.27669 61.5645 9.50456 61.5645 9.74609ZM69.3096 8.49512V14.4219H68.0381V7.02539H69.2412L69.3096 8.49512ZM69.0498 10.4434L68.4619 10.4229C68.4665 9.91699 68.5326 9.44987 68.6602 9.02148C68.7878 8.58854 68.9769 8.21257 69.2275 7.89355C69.4782 7.57454 69.7904 7.32845 70.1641 7.15527C70.5378 6.97754 70.9707 6.88867 71.4629 6.88867C71.8092 6.88867 72.1283 6.9388 72.4199 7.03906C72.7116 7.13477 72.9645 7.28743 73.1787 7.49707C73.3929 7.70671 73.5592 7.97559 73.6777 8.30371C73.7962 8.63184 73.8555 9.02832 73.8555 9.49316V14.4219H72.5908V9.55469C72.5908 9.16732 72.5247 8.85742 72.3926 8.625C72.265 8.39258 72.0827 8.22396 71.8457 8.11914C71.6087 8.00977 71.3307 7.95508 71.0117 7.95508C70.638 7.95508 70.3258 8.02116 70.0752 8.15332C69.8245 8.28548 69.624 8.46777 69.4736 8.7002C69.3232 8.93262 69.2139 9.19922 69.1455 9.5C69.0817 9.79622 69.0498 10.1107 69.0498 10.4434ZM73.8418 9.74609L72.9941 10.0059C72.9987 9.60026 73.0648 9.21061 73.1924 8.83691C73.3245 8.46322 73.5137 8.13053 73.7598 7.83887C74.0104 7.5472 74.318 7.31706 74.6826 7.14844C75.0472 6.97526 75.4642 6.88867 75.9336 6.88867C76.3301 6.88867 76.681 6.94108 76.9863 7.0459C77.2962 7.15072 77.556 7.3125 77.7656 7.53125C77.9798 7.74544 78.1416 8.02116 78.251 8.3584C78.3604 8.69564 78.415 9.09668 78.415 9.56152V14.4219H77.1436V9.54785C77.1436 9.13314 77.0775 8.81185 76.9453 8.58398C76.8177 8.35156 76.6354 8.18978 76.3984 8.09863C76.166 8.00293 75.888 7.95508 75.5645 7.95508C75.2865 7.95508 75.0404 8.00293 74.8262 8.09863C74.612 8.19434 74.432 8.3265 74.2861 8.49512C74.1403 8.65918 74.0286 8.84831 73.9512 9.0625C73.8783 9.27669 73.8418 9.50456 73.8418 9.74609ZM83.3984 14.5586C82.8835 14.5586 82.4163 14.472 81.9971 14.2988C81.5824 14.1211 81.2246 13.8727 80.9238 13.5537C80.6276 13.2347 80.3997 12.8564 80.2402 12.4189C80.0807 11.9814 80.001 11.5029 80.001 10.9834V10.6963C80.001 10.0947 80.0898 9.55924 80.2676 9.08984C80.4453 8.61589 80.6868 8.21484 80.9922 7.88672C81.2975 7.55859 81.6439 7.31022 82.0312 7.1416C82.4186 6.97298 82.8197 6.88867 83.2344 6.88867C83.763 6.88867 84.2188 6.97982 84.6016 7.16211C84.9889 7.3444 85.3057 7.59961 85.5518 7.92773C85.7979 8.2513 85.9801 8.63411 86.0986 9.07617C86.2171 9.51367 86.2764 9.99219 86.2764 10.5117V11.0791H80.7529V10.0469H85.0117V9.95117C84.9935 9.62305 84.9251 9.30404 84.8066 8.99414C84.6927 8.68424 84.5104 8.42904 84.2598 8.22852C84.0091 8.02799 83.6673 7.92773 83.2344 7.92773C82.9473 7.92773 82.6829 7.98926 82.4414 8.1123C82.1999 8.23079 81.9925 8.40853 81.8193 8.64551C81.6462 8.88249 81.5117 9.17188 81.416 9.51367C81.3203 9.85547 81.2725 10.2497 81.2725 10.6963V10.9834C81.2725 11.3343 81.3203 11.6647 81.416 11.9746C81.5163 12.2799 81.6598 12.5488 81.8467 12.7812C82.0381 13.0137 82.2682 13.196 82.5371 13.3281C82.8105 13.4603 83.1204 13.5264 83.4668 13.5264C83.9134 13.5264 84.2917 13.4352 84.6016 13.2529C84.9115 13.0706 85.1826 12.8268 85.415 12.5215L86.1807 13.1299C86.0212 13.3714 85.8184 13.6016 85.5723 13.8203C85.3262 14.0391 85.0231 14.2168 84.6631 14.3535C84.3076 14.4902 83.8861 14.5586 83.3984 14.5586ZM89.0176 8.60449V14.4219H87.7529V7.02539H88.9492L89.0176 8.60449ZM88.7168 10.4434L88.1904 10.4229C88.195 9.91699 88.2702 9.44987 88.416 9.02148C88.5618 8.58854 88.7669 8.21257 89.0312 7.89355C89.2956 7.57454 89.61 7.32845 89.9746 7.15527C90.3438 6.97754 90.7516 6.88867 91.1982 6.88867C91.5628 6.88867 91.891 6.9388 92.1826 7.03906C92.4743 7.13477 92.7227 7.28971 92.9277 7.50391C93.1374 7.7181 93.2969 7.99609 93.4062 8.33789C93.5156 8.67513 93.5703 9.08757 93.5703 9.5752V14.4219H92.2988V9.56152C92.2988 9.17415 92.2419 8.86426 92.1279 8.63184C92.014 8.39486 91.8477 8.22396 91.6289 8.11914C91.4102 8.00977 91.1413 7.95508 90.8223 7.95508C90.5078 7.95508 90.2207 8.02116 89.9609 8.15332C89.7057 8.28548 89.4847 8.46777 89.2979 8.7002C89.1156 8.93262 88.972 9.19922 88.8672 9.5C88.7669 9.79622 88.7168 10.1107 88.7168 10.4434ZM98.5879 7.02539V7.99609H94.5889V7.02539H98.5879ZM95.9424 5.22754H97.207V12.5898C97.207 12.8405 97.2458 13.0296 97.3232 13.1572C97.4007 13.2848 97.501 13.3691 97.624 13.4102C97.7471 13.4512 97.8792 13.4717 98.0205 13.4717C98.1253 13.4717 98.2347 13.4626 98.3486 13.4443C98.4671 13.4215 98.556 13.4033 98.6152 13.3896L98.6221 14.4219C98.5218 14.4538 98.3896 14.4834 98.2256 14.5107C98.0661 14.5426 97.8724 14.5586 97.6445 14.5586C97.3346 14.5586 97.0498 14.4971 96.79 14.374C96.5303 14.251 96.3229 14.0459 96.168 13.7588C96.0176 13.4671 95.9424 13.0752 95.9424 12.583V5.22754ZM100.119 13.752C100.119 13.5378 100.185 13.3577 100.317 13.2119C100.454 13.0615 100.65 12.9863 100.905 12.9863C101.16 12.9863 101.354 13.0615 101.486 13.2119C101.623 13.3577 101.691 13.5378 101.691 13.752C101.691 13.9616 101.623 14.1393 101.486 14.2852C101.354 14.431 101.16 14.5039 100.905 14.5039C100.65 14.5039 100.454 14.431 100.317 14.2852C100.185 14.1393 100.119 13.9616 100.119 13.752ZM103.106 13.752C103.106 13.5378 103.173 13.3577 103.305 13.2119C103.441 13.0615 103.637 12.9863 103.893 12.9863C104.148 12.9863 104.341 13.0615 104.474 13.2119C104.61 13.3577 104.679 13.5378 104.679 13.752C104.679 13.9616 104.61 14.1393 104.474 14.2852C104.341 14.431 104.148 14.5039 103.893 14.5039C103.637 14.5039 103.441 14.431 103.305 14.2852C103.173 14.1393 103.106 13.9616 103.106 13.752ZM105.943 13.752C105.943 13.5378 106.009 13.3577 106.142 13.2119C106.278 13.0615 106.474 12.9863 106.729 12.9863C106.985 12.9863 107.178 13.0615 107.311 13.2119C107.447 13.3577 107.516 13.5378 107.516 13.752C107.516 13.9616 107.447 14.1393 107.311 14.2852C107.178 14.431 106.985 14.5039 106.729 14.5039C106.474 14.5039 106.278 14.431 106.142 14.2852C106.009 14.1393 105.943 13.9616 105.943 13.752Z" fill="#262626"/>
</g>
<g clip-path="url(#clip1_1_214)">
<path d="M465.575 8.87859C465.45 8.87859 465.328 8.91566 465.224 8.98512C465.12 9.05458 465.039 9.1533 464.991 9.26881C464.943 9.38431 464.93 9.51141 464.955 9.63403C464.979 9.75665 465.039 9.86929 465.128 9.95769C465.216 10.0461 465.329 10.1063 465.451 10.1307C465.574 10.1551 465.701 10.1426 465.817 10.0947C465.932 10.0469 466.031 9.96585 466.1 9.8619C466.17 9.75795 466.207 9.63573 466.207 9.51071C466.207 9.34306 466.14 9.18228 466.022 9.06373C465.903 8.94518 465.742 8.87859 465.575 8.87859ZM462.054 9.51071C462.054 9.38567 462.017 9.26343 461.947 9.15946C461.878 9.0555 461.779 8.97448 461.664 8.92665C461.548 8.87882 461.421 8.86634 461.298 8.89077C461.176 8.91521 461.063 8.97546 460.975 9.06392C460.886 9.15238 460.826 9.26507 460.802 9.38772C460.777 9.51038 460.79 9.63749 460.838 9.75299C460.886 9.86849 460.967 9.96717 461.071 10.0366C461.175 10.106 461.297 10.1429 461.422 10.1428C461.59 10.1427 461.751 10.076 461.869 9.9575C461.987 9.83897 462.054 9.67827 462.054 9.51071ZM464.851 11.2657C464.678 11.4511 464.47 11.599 464.238 11.7002C464.006 11.8015 463.755 11.8539 463.502 11.8543C463.249 11.8547 462.998 11.8029 462.766 11.7023C462.534 11.6017 462.325 11.4544 462.152 11.2695C462.062 11.1577 461.931 11.0862 461.788 11.071C461.645 11.0557 461.502 11.0978 461.39 11.188C461.278 11.2782 461.207 11.4092 461.192 11.552C461.176 11.6949 461.218 11.838 461.309 11.9498C461.583 12.2604 461.92 12.5091 462.298 12.6795C462.676 12.8498 463.085 12.9379 463.5 12.9379C463.914 12.9379 464.324 12.8498 464.701 12.6795C465.079 12.5091 465.416 12.2604 465.691 11.9498C465.777 11.8381 465.817 11.6969 465.801 11.5564C465.785 11.416 465.714 11.2873 465.605 11.198C465.495 11.1087 465.355 11.0658 465.214 11.0784C465.073 11.0911 464.943 11.1583 464.851 11.2657H464.851ZM463.5 3.19434C462.268 3.19434 461.064 3.55967 460.039 4.24414C459.015 4.92861 458.217 5.90147 457.745 7.0397C457.274 8.17794 457.15 9.43041 457.391 10.6388C457.631 11.8471 458.224 12.957 459.095 13.8282C459.967 14.6994 461.077 15.2926 462.285 15.533C463.493 15.7733 464.746 15.65 465.884 15.1785C467.022 14.707 467.995 13.9086 468.68 12.8842C469.364 11.8599 469.729 10.6555 469.729 9.4235C469.727 7.772 469.071 6.18867 467.903 5.02088C466.735 3.85308 465.152 3.1962 463.5 3.19434ZM463.5 14.5693C462.482 14.5693 461.488 14.2675 460.641 13.7021C459.795 13.1367 459.136 12.333 458.746 11.3927C458.357 10.4524 458.255 9.41779 458.453 8.4196C458.652 7.42141 459.142 6.50451 459.862 5.78485C460.581 5.06519 461.498 4.5751 462.496 4.37654C463.494 4.17799 464.529 4.2799 465.469 4.66937C466.41 5.05885 467.213 5.7184 467.779 6.56463C468.344 7.41086 468.646 8.40575 468.646 9.4235C468.645 10.7878 468.102 12.0959 467.137 13.0606C466.173 14.0253 464.864 14.5679 463.5 14.5693Z" fill="#8E8E8E"/>
</g>
<defs>
<clipPath id="clip0_1_214">
<rect width="457" height="18" fill="white" transform="translate(0 0.421875)"/>
</clipPath>
<clipPath id="clip1_1_214">
<rect width="13" height="13" fill="white" transform="translate(457 2.92188)"/>
</clipPath>
</defs>
</svg>
