<svg width="24" height="22" viewBox="0 0 24 22" fill="none" xmlns="http://www.w3.org/2000/svg">
<path d="M16.7922 2.90397C18.1066 2.97664 19.339 3.56587 20.2209 4.54328C21.1028 5.52068 21.5626 6.80701 21.5002 8.12197C21.5002 11.194 18.8482 13.081 16.3032 15.344C13.7912 17.587 12.4382 18.813 12.0002 19.096C11.5232 18.787 9.85717 17.273 7.69717 15.344C5.14117 13.072 2.50017 11.167 2.50017 8.12197C2.43773 6.80701 2.89755 5.52068 3.77943 4.54328C4.6613 3.56587 5.89373 2.97664 7.20817 2.90397C7.93631 2.8819 8.65772 3.04915 9.30188 3.38937C9.94603 3.72959 10.4909 4.23113 10.8832 4.84497C11.7232 6.01997 11.8632 6.60797 12.0032 6.60797C12.1432 6.60797 12.2812 6.01997 13.1132 4.84197C13.5032 4.22529 14.0483 3.72176 14.6939 3.38169C15.3395 3.04161 16.063 2.87688 16.7922 2.90397ZM16.7922 0.903973C15.8841 0.874899 14.9812 1.05106 14.1506 1.41932C13.3201 1.78759 12.5833 2.33848 11.9952 3.03097C11.4075 2.3405 10.6723 1.79088 9.84371 1.42272C9.01515 1.05457 8.11445 0.877286 7.20817 0.903973C5.36304 0.976124 3.62155 1.77596 2.36451 3.12857C1.10747 4.48118 0.43716 6.27651 0.500165 8.12197C0.500165 11.732 3.05017 13.949 5.51517 16.092C5.79817 16.338 6.08417 16.586 6.36817 16.839L7.39517 17.757C8.51521 18.8227 9.68943 19.8301 10.9132 20.775C11.2369 20.9846 11.6144 21.0962 12.0002 21.0962C12.3859 21.0962 12.7634 20.9846 13.0872 20.775C14.3499 19.8012 15.5602 18.7614 16.7132 17.66L17.6352 16.836C17.9282 16.576 18.2252 16.317 18.5202 16.062C20.8542 14.037 23.5002 11.742 23.5002 8.12197C23.5632 6.27651 22.8929 4.48118 21.6358 3.12857C20.3788 1.77596 18.6373 0.976124 16.7922 0.903973Z" fill="#262626"/>
</svg>
